<svg xmlns="http://www.w3.org/2000/svg" viewBox="0 0 520 120" fill="none">
  <g stroke="#bba36b" stroke-width="3" stroke-linecap="round" stroke-linejoin="round">
    <path d="M28 62h464"/>
    <path d="M28 62c22-18 42-18 60 0-18 18-38 18-60 0Z"/>
    <path d="M492 62c-22-18-42-18-60 0 18 18 38 18 60 0Z"/>
    <path d="M108 62c30 0 34-36 64-36 20 0 32 16 24 32"/>
    <path d="M412 62c-30 0-34-36-64-36-20 0-32 16-24 32"/>
    <path d="M172 62c30 0 34 36 64 36 20 0 32-16 24-32"/>
    <path d="M348 62c-30 0-34 36-64 36-20 0-32-16-24-32"/>
    <path d="M260 62c-18-20-16-42 0-58 16 16 18 38 0 58Z"/>
    <path d="M260 62c18 20 16 42 0 58-16-16-18-38 0-58Z"/>
    <path d="M260 62c-20-18-42-16-58 0 16 16 38 18 58 0Z"/>
    <path d="M260 62c20-18 42-16 58 0-16 16-38 18-58 0Z"/>
  </g>
</svg>
